# xmcd
#
# Track frame offsets:
# 150
# 18406
# 34969
# 49251
# 64184
# 92577
# 106178
# 132000
# 158729
# 170055
# 180916
# 195113
# 213403
# 227192
# 243482
# 254641
# 272217
# 286145
# 299679
# 312112
#
# Disc length: 4335 seconds
#
#
# Revision: 0
# Processed by: cddbd v1.4PL0 Copyright (c) Steve Scherf et al.
# Submitted via: FreeRIP 2.30 
#
DISCID=2010ed14
DTITLE=The Busketeers - Roll along prairie moon
DYEAR=2003
DGENRE=Blues
TTITLE0=roll along praire moon
TTITLE1=ice cream
TTITLE2=burgundy street blues
TTITLE3=beautiful dreamer
TTITLE4=the old rugged cross
TTITLE5=canal street blues
TTITLE6=milenburgh joys
TTITLE7=the glory of love
TTITLE8=jambalaya
TTITLE9=jajda
TTITLE10=girl of my dreams
TTITLE11=am i blue
TTITLE12=tin roof blues
TTITLE13=move the body over
TTITLE14=we shall walk through the streets of the city
TTITLE15=san jacinto stomp
TTITLE16=second line
TTITLE17=silver threads amoung the gold
TTITLE18=lord! lord! lord! you sure been good to me
TTITLE19=the collegian
EXTD=
EXTT0=
EXTT1=
EXTT2=
EXTT3=
EXTT4=
EXTT5=
EXTT6=
EXTT7=
EXTT8=
EXTT9=
EXTT10=
EXTT11=
EXTT12=
EXTT13=
EXTT14=
EXTT15=
EXTT16=
EXTT17=
EXTT18=
EXTT19=
PLAYORDER=
